<!DOCTYPE svg PUBLIC "-//W3C//DTD SVG 1.1//EN" "http://www.w3.org/Graphics/SVG/1.1/DTD/svg11.dtd">

<!-- Uploaded to: SVG Repo, www.svgrepo.com, Transformed by: SVG Repo Mixer Tools -->
<svg height="800px" width="800px" version="1.1" id="Layer_1" xmlns="http://www.w3.org/2000/svg" xmlns:xlink="http://www.w3.org/1999/xlink" viewBox="0 0 512 512" xml:space="preserve" fill="#000000">

<g id="SVGRepo_bgCarrier" stroke-width="0"/>

<g id="SVGRepo_tracerCarrier" stroke-linecap="round" stroke-linejoin="round"/>

<g id="SVGRepo_iconCarrier"> <path style="fill:#03e2ff;" d="M417.24,256l60.464-104.727c4.158-7.201,4.158-16.072,0-23.273 c-4.158-7.201-11.84-11.636-20.154-11.636H336.62L276.154,11.636C271.998,4.436,264.315,0,256,0s-15.998,4.436-20.154,11.636 l-60.464,104.727H54.452c-8.315,0-15.998,4.436-20.154,11.636c-4.157,7.201-4.158,16.072,0,23.273L94.763,256L34.296,360.727 c-4.158,7.201-4.158,16.072,0,23.273s11.84,11.636,20.154,11.636h120.93l60.464,104.727c4.158,7.201,11.84,11.636,20.154,11.636 c8.315,0,15.998-4.436,20.154-11.636l60.464-104.727h120.93c8.315,0,15.998-4.436,20.154-11.636c4.156-7.201,4.158-16.072,0-23.273 L417.24,256z"/> <path style="fill:#03e2ff;" d="M34.296,384c4.158,7.201,11.84,11.636,20.154,11.636h120.93l60.464,104.727 c4.158,7.201,11.84,11.636,20.154,11.636V0c-8.315,0-15.998,4.436-20.154,11.636l-60.463,104.727H54.452 c-8.315,0-15.996,4.436-20.154,11.636c-4.158,7.201-4.158,16.072,0,23.273L94.763,256L34.296,360.727 C30.14,367.928,30.14,376.799,34.296,384z"/> </g>

</svg>